HIERARCHY
ROOT Hips
{
	OFFSET -14.64140 90.27770 -84.91600
	CHANNELS 6 Xposition Yposition Zposition Zrotation Xrotation Yrotation
	JOINT Spine
	{
		OFFSET 0.00000 13.20850 -1.60436
		CHANNELS 3 Zrotation Xrotation Yrotation
		JOINT Spine1
		{
			OFFSET 0.00000 8.61716 0.00000
			CHANNELS 3 Zrotation Xrotation Yrotation
			JOINT Spine2
			{
				OFFSET 0.00000 8.61717 0.00000
				CHANNELS 3 Zrotation Xrotation Yrotation
				JOINT Spine3
				{
					OFFSET 0.00000 8.61717 0.00000
					CHANNELS 3 Zrotation Xrotation Yrotation
					JOINT Neck
					{
						OFFSET 0.00000 11.07920 1.10792
						CHANNELS 3 Zrotation Xrotation Yrotation
						JOINT Neck1
						{
							OFFSET 0.00000 7.08032 0.00000
							CHANNELS 3 Zrotation Xrotation Yrotation
							JOINT Head
							{
								OFFSET 0.00000 7.08031 0.00000
								CHANNELS 3 Zrotation Xrotation Yrotation
								End site
								{
									OFFSET 0.00000 0.00000 0.00000
								}
							}
						}
					}
					JOINT RightShoulder
					{
						OFFSET -0.01000 7.91373 5.19711
						CHANNELS 3 Zrotation Xrotation Yrotation
						JOINT RightArm
						{
							OFFSET -18.41580 0.00000 0.00000
							CHANNELS 3 Zrotation Xrotation Yrotation
							JOINT RightForeArm
							{
								OFFSET -29.11090 0.00000 0.00000
								CHANNELS 3 Zrotation Xrotation Yrotation
								JOINT RightHand
								{
									OFFSET -24.65040 0.00000 0.00000
									CHANNELS 3 Zrotation Xrotation Yrotation
									JOINT RightHandThumb1
									{
										OFFSET -5.35114 -0.85590 3.97906
										CHANNELS 3 Zrotation Xrotation Yrotation
										JOINT RightHandThumb2
										{
											OFFSET -4.52789 0.00000 0.00000
											CHANNELS 3 Zrotation Xrotation Yrotation
											JOINT RightHandThumb3
											{
												OFFSET -2.46976 0.00000 0.00000
												CHANNELS 3 Zrotation Xrotation Yrotation
												End site
												{
													OFFSET 0.00000 0.00000 0.00000
												}
											}
										}
									}
									JOINT RightHandIndex1
									{
										OFFSET -14.26970 0.00000 2.88139
										CHANNELS 3 Zrotation Xrotation Yrotation
										JOINT RightHandIndex2
										{
											OFFSET -5.48836 0.00000 0.00000
											CHANNELS 3 Zrotation Xrotation Yrotation
											JOINT RightHandIndex3
											{
												OFFSET -3.01859 0.00000 0.00000
												CHANNELS 3 Zrotation Xrotation Yrotation
												End site
												{
													OFFSET 0.00000 0.00000 0.00000
												}
											}
										}
									}
									JOINT RightHandMiddle1
									{
										OFFSET -14.26970 0.00000 -0.09147
										CHANNELS 3 Zrotation Xrotation Yrotation
										JOINT RightHandMiddle2
										{
											OFFSET -6.17441 0.00000 0.00000
											CHANNELS 3 Zrotation Xrotation Yrotation
											JOINT RightHandMiddle3
											{
												OFFSET -3.56743 0.00000 0.00000
												CHANNELS 3 Zrotation Xrotation Yrotation
												End site
												{
													OFFSET 0.00000 0.00000 0.00000
												}
											}
										}
									}
									JOINT RightHandRing1
									{
										OFFSET -12.69180 0.00000 -3.06433
										CHANNELS 3 Zrotation Xrotation Yrotation
										JOINT RightHandRing2
										{
											OFFSET -5.62556 0.00000 0.00000
											CHANNELS 3 Zrotation Xrotation Yrotation
											JOINT RightHandRing3
											{
												OFFSET -3.56744 0.00000 0.00000
												CHANNELS 3 Zrotation Xrotation Yrotation
												End site
												{
													OFFSET 0.00000 0.00000 0.00000
												}
											}
										}
									}
									JOINT RightHandPinky1
									{
										OFFSET -11.11390 0.00000 -6.03719
										CHANNELS 3 Zrotation Xrotation Yrotation
										JOINT RightHandPinky2
										{
											OFFSET -4.52789 0.00000 0.00000
											CHANNELS 3 Zrotation Xrotation Yrotation
											JOINT RightHandPinky3
											{
												OFFSET -2.46976 0.00000 0.00000
												CHANNELS 3 Zrotation Xrotation Yrotation
												End site
												{
													OFFSET 0.00000 0.00000 0.00000
												}
											}
										}
									}
								}
							}
						}
					}
					JOINT LeftShoulder
					{
						OFFSET 0.01000 7.91373 5.19711
						CHANNELS 3 Zrotation Xrotation Yrotation
						JOINT LeftArm
						{
							OFFSET 18.41580 0.00000 0.00000
							CHANNELS 3 Zrotation Xrotation Yrotation
							JOINT LeftForeArm
							{
								OFFSET 29.11090 0.00000 0.00000
								CHANNELS 3 Zrotation Xrotation Yrotation
								JOINT LeftHand
								{
									OFFSET 24.65040 0.00000 0.00000
									CHANNELS 3 Zrotation Xrotation Yrotation
									JOINT LeftHandThumb1
									{
										OFFSET 5.35114 -0.85590 3.97906
										CHANNELS 3 Zrotation Xrotation Yrotation
										JOINT LeftHandThumb2
										{
											OFFSET 4.52789 0.00000 0.00000
											CHANNELS 3 Zrotation Xrotation Yrotation
											JOINT LeftHandThumb3
											{
												OFFSET 2.46977 0.00000 0.00000
												CHANNELS 3 Zrotation Xrotation Yrotation
												End site
												{
													OFFSET 0.00000 0.00000 0.00000
												}
											}
										}
									}
									JOINT LeftHandIndex1
									{
										OFFSET 14.26970 0.00000 2.88139
										CHANNELS 3 Zrotation Xrotation Yrotation
										JOINT LeftHandIndex2
										{
											OFFSET 5.48836 0.00000 0.00000
											CHANNELS 3 Zrotation Xrotation Yrotation
											JOINT LeftHandIndex3
											{
												OFFSET 3.01859 0.00000 0.00000
												CHANNELS 3 Zrotation Xrotation Yrotation
												End site
												{
													OFFSET 0.00000 0.00000 0.00000
												}
											}
										}
									}
									JOINT LeftHandMiddle1
									{
										OFFSET 14.26970 0.00000 -0.09147
										CHANNELS 3 Zrotation Xrotation Yrotation
										JOINT LeftHandMiddle2
										{
											OFFSET 6.17440 0.00000 0.00000
											CHANNELS 3 Zrotation Xrotation Yrotation
											JOINT LeftHandMiddle3
											{
												OFFSET 3.56744 0.00000 0.00000
												CHANNELS 3 Zrotation Xrotation Yrotation
												End site
												{
													OFFSET 0.00000 0.00000 0.00000
												}
											}
										}
									}
									JOINT LeftHandRing1
									{
										OFFSET 12.69180 0.00000 -3.06433
										CHANNELS 3 Zrotation Xrotation Yrotation
										JOINT LeftHandRing2
										{
											OFFSET 5.62556 0.00000 0.00000
											CHANNELS 3 Zrotation Xrotation Yrotation
											JOINT LeftHandRing3
											{
												OFFSET 3.56744 0.00000 0.00000
												CHANNELS 3 Zrotation Xrotation Yrotation
												End site
												{
													OFFSET 0.00000 0.00000 0.00000
												}
											}
										}
									}
									JOINT LeftHandPinky1
									{
										OFFSET 11.11390 0.00000 -6.03719
										CHANNELS 3 Zrotation Xrotation Yrotation
										JOINT LeftHandPinky2
										{
											OFFSET 4.52789 0.00000 0.00000
											CHANNELS 3 Zrotation Xrotation Yrotation
											JOINT LeftHandPinky3
											{
												OFFSET 2.46976 0.00000 0.00000
												CHANNELS 3 Zrotation Xrotation Yrotation
												End site
												{
													OFFSET 0.00000 0.00000 0.00000
												}
											}
										}
									}
								}
							}
						}
					}
					JOINT pCube4
					{
						OFFSET 0.00000 10.91090 1.10792
						CHANNELS 3 Zrotation Xrotation Yrotation
						End site
						{
							OFFSET 0.00000 0.00000 0.00000
						}
					}
				}
			}
		}
	}
	JOINT RightUpLeg
	{
		OFFSET -9.98441 0.00000 0.00000
		CHANNELS 3 Zrotation Xrotation Yrotation
		JOINT RightLeg
		{
			OFFSET 0.00000 -42.11790 0.00000
			CHANNELS 3 Zrotation Xrotation Yrotation
			JOINT RightFoot
			{
				OFFSET 0.00000 -45.00020 -0.00001
				CHANNELS 3 Zrotation Xrotation Yrotation
				JOINT RightForeFoot
				{
					OFFSET 0.00000 -3.74820 0.00000
					CHANNELS 3 Zrotation Xrotation Yrotation
					JOINT RightToeBase
					{
						OFFSET 0.00000 0.06325 14.43120
						CHANNELS 3 Zrotation Xrotation Yrotation
						End site
						{
							OFFSET 0.00000 0.00000 0.00000
						}
					}
				}
			}
		}
	}
	JOINT LeftUpLeg
	{
		OFFSET 9.98441 0.00000 0.00000
		CHANNELS 3 Zrotation Xrotation Yrotation
		JOINT LeftLeg
		{
			OFFSET 0.00000 -42.11800 0.00000
			CHANNELS 3 Zrotation Xrotation Yrotation
			JOINT LeftFoot
			{
				OFFSET 0.00000 -45.00070 0.00000
				CHANNELS 3 Zrotation Xrotation Yrotation
				JOINT LeftForeFoot
				{
					OFFSET 0.00000 -3.74824 0.00000
					CHANNELS 3 Zrotation Xrotation Yrotation
					JOINT LeftToeBase
					{
						OFFSET 0.00000 0.06325 14.43110
						CHANNELS 3 Zrotation Xrotation Yrotation
						End site
						{
							OFFSET 0.00000 0.00000 0.00000
						}
					}
				}
			}
		}
	}
}
MOTION
Frames: 4
Frame Time: 0.050000
-0.03444841480790689 0.019938811112576872 -0.0244073755552221 0.034461305229070385 0.047914182535899325 -0.011808297866653002 3.2708718356048654 2.3865620266536394 -1.892348429784511 -0.5621288668966042 3.7077398168941498 0.30968844106339566 -0.6973893438474076 -1.530543725506611 1.108321965532437 -0.5600696517783408 -0.4545196020970011 -0.29221423692142423 0.159254876554291 13.466877763162508 -1.6258889305489925 0.41332604088148633 -0.03534782812338857 -4.220266877856309 0.9791315313021658 -15.869279789618004 -0.3384661195950449 -7.818783556023851 2.859513124441353 -16.459779214672537 76.1539053399657 15.319970057505987 10.562978917721646 1.4949008059723823 0.7966532314682436 89.54457717260576 21.179112481007767 -0.49443905648932523 -4.395021915614658 4.54681660396436 -0.16843900683548052 -1.633308685810208 0.022073743482757875 -0.03066690867689313 -56.26046891971399 0.014055193543972336 -0.01013733827926177 -56.24394917694741 -38.768191386505684 0.043291889840795086 0.027980618109755877 -0.0064238262677526825 0.00859445966872744 0.021088872301549242 -0.04589131972759726 -0.007252749802469347 0.040056948598419954 -36.711357719207456 0.011075356976042443 0.012453413664050868 -0.03585403282928404 0.004605373625809212 0.041743109857695054 0.0473238721967982 0.047522119521841065 -0.03860816917888989 -19.739164336933886 -0.048883676350050156 -0.016702629021420386 -0.0192261022003128 0.012066628447621035 -0.003514078438906439 -0.025353000959027146 -0.010202265467511394 0.03571253543589189 24.052319116534157 -0.029693167776861755 0.018657712818303158 28.890817480343458 -0.012320478709184597 0.003671642314985313 28.900290099441797 -0.0007218925682812976 0.03815252899366994 8.615576496624078 2.159494919888491 14.593836308459197 -74.53692392909646 24.703323920125236 -11.381573793457807 -16.62163287455731 3.2515319483340575 -83.89740731585161 -23.39617135363046 -2.7505351517323993 1.658894998289785 -0.476805848489117 0.01976822418025783 -8.113004737670181 -0.04921169659966407 0.0007853348908419504 44.55400002009668 0.011452368017572991 -0.01060210549155967 44.59023961622029 12.4752649614498 -0.011904048373449933 0.012159825621153648 0.002241603060788869 -0.006227554225326528 0.02720192501373081 0.047954580509120576 0.019688596249234573 -0.003274943802977277 11.124798963127972 0.01804515729110582 -0.009171756348292955 0.030017525593673444 -0.0020104156131796436 -0.04158033219875314 -0.04975156817735498 -0.04012114415404573 -0.00412971880500161 4.736330604151177 -0.02507836579522772 -0.01595725071950548 0.03141964497762289 -0.0060003686129753145 -0.02120761576822601 8.645914011786407e-05 -0.02733687323356915 0.009413384571043817 -5.564012590048028 0.012095114862055724 0.045010914395077706 -6.7680489750831825 -0.0071436645420248305 -0.03664612226980752 -6.716375962087092 0.03582795179215241 0.045341784744731 -0.02633713416885125 -0.010491890146741829 -0.031514716912814926 8.074939553933012 3.4500474911662304 -19.200404048020292 -0.002871914588876825 10.419397225524829 0.06390197393328975 -5.581342537677042 -15.667586293734743 3.202621501721863 -0.03908924333023798 -0.039487294089408126 -0.03786364722173683 0.04354045155437272 4.6890878593833 0.03445147205919132 12.427909532550284 -8.249134053956906 6.884745300599324 -0.007848843360902344 46.35655561745443 -0.0014703070633880022 -4.364918839800069 -14.772309657845842 -3.8107861468159965 -0.00867895264093928 0.026670808628566585 -0.0463759291320533 0.016722703826428976 -10.770654775515206 0.014661871567479152 
0.047312048927989 0.025028697440006936 0.025856741028768948 -0.0014270919618141874 0.026930883269510555 -0.0017358271408266315 3.704632666209 2.4228885320833515 -1.9242975463818315 -0.6112845621481586 3.6446670071832186 0.35985339051779763 -0.5937448184652868 -1.567910955391893 0.9619627298113602 -0.5003704985542683 -0.3149481104081342 -0.3367083669750123 0.07157904810387036 13.69262047724251 -1.549437595545379 0.34296788324268834 0.13850228327165418 -3.8295839302111965 0.9311904519525345 -15.721582570985237 -0.34618190777868885 -8.356805922759857 2.9525021598817465 -16.805045035981678 76.76536282467089 17.035261780604817 9.535671498629581 -0.5921182126451865 0.27506283427412 87.7794264470085 21.085267635076036 -0.5607671051176143 -4.6679117591634 4.574976828536735 -0.09863480401646259 -1.5491052483976337 -0.002134206589845467 0.024708751333059765 -56.215351721820504 0.005161802465397483 0.028147772417808855 -56.222744644076315 -38.72558772090445 0.042399837632957696 0.043315047990801554 0.010932674068369917 -0.045668608544487545 0.028433892833475586 -0.030010495137013468 0.035289248806628114 -0.021823173160035847 -36.698959911999424 0.03781851070590966 0.015011549671232288 -0.03337047597583268 0.028792726146596746 -0.01696672550927308 0.011564091689479828 -0.004648333227403319 -0.028674433936184195 -19.77726746034484 0.024584342575235334 -0.02553019771242757 0.016646211505557593 0.022966722360611664 -0.035291083463247004 0.013129645437126396 0.01641899672227537 0.004078880344792618 24.097466659456643 0.02430496310829085 0.025147320202797065 28.861279088217035 -0.04954066110335203 -8.533646847425187e-05 28.858593312427104 -0.037785803111038616 0.011324977139710004 9.206909058137349 2.2864812324501385 14.738930526251988 -74.30273637914759 25.69395268497988 -11.699785558157377 -15.44437243305414 2.6603779681387425 -83.33378254673309 -23.28312791774416 -3.6948100968732795 2.3565930441535814 -0.521267641466366 0.09781202747678153 -8.089553068212423 -0.03327347981972197 0.029013347269678184 44.56090100520282 0.04836692438650394 0.02863825768816979 44.53233287326164 12.501649586288286 0.039518953358372924 -0.014490448859785813 0.022958202483769098 0.040071486725929244 0.026834859313639717 -0.02810158759916343 0.01081731927722387 -0.006669898438025136 11.099160791791618 -0.04717722973153217 -0.02126538290396104 -0.0297405848851621 -0.04547936035657839 0.007305384206082788 0.02430278395486135 0.0037489059764514417 0.011509715979217298 4.8214842825522055 -0.01554453038651221 0.041401404471609886 -0.040289384525139964 -0.020961160444889906 0.033735310350166935 -0.011582285131858164 0.041394062952478244 -0.03360803078978684 -5.643988205172272 -0.045063750165479 -0.032947293840521204 -6.757619291184339 0.03909944811942273 -0.008717749252477612 -6.73192670123627 -0.0032358887752949135 0.04934581458892913 0.04738738823090835 0.03697634415574813 0.004966093578333997 8.038570223850797 3.4911253438507903 -19.25639862323078 0.002584291242560139 10.411772112298761 -0.018701652213657705 -5.6613149228252855 -15.656525080122714 3.2411317291327757 0.010055720034764674 -0.03792644247563282 0.014332181975031505 -0.018130939699100127 4.705033577311719 -0.033105835976212625 12.50120356111257 -8.228278488918626 6.88723971237903 -0.0033590665712724065 46.40471157861807 -0.03229962648318544 -4.325289951818803 -14.756189503870512 -3.8723701068063527 0.014505122085388327 -0.012934167708919435 0.005551564249900312 -0.012922596050010806 -10.719552866229012 0.026368498227713727 
-0.04153325634255278 0.013877973484168346 0.024487781120997386 -0.009546571309147957 0.048465557531568476 0.03849538676841219 4.064613996062683 2.422429523777203 -1.9566823469298267 -0.6301755890911115 3.6331543140461267 0.30939457363325806 -0.6104706474414845 -1.520954251349721 0.9511715700888413 -0.48607025145412047 -0.25212804898736724 -0.24399841950231776 0.07268256688859229 13.898932560821645 -1.3874791520987366 0.3420182366369708 0.34643551689924534 -3.245415752785551 0.8454403575430622 -15.484246330963236 -0.3052408199685151 -8.682705177100312 3.084307791292279 -17.023123002449456 77.25693544948356 18.809831320202303 8.954949916576366 -2.086686968577099 0.018408047788201758 86.56245951285369 21.084267627060868 -0.5154973773208318 -4.90943295081685 4.5156710562282605 -0.13193589847731527 -1.5959564266021704 -0.003754220082973549 0.03445695615495805 -56.28092360663073 -0.048658191530976586 -0.04400285170215728 -56.23057451288643 -38.81100831391151 -0.023861415816378666 -0.007798281901455217 0.02256338626488888 -0.03296407988038625 0.024849606429101452 -0.03482331920622127 0.0035371125134142597 -0.015530890109483681 -36.69788392767481 0.005659104226056395 0.04925787168786469 -0.04255851345149678 0.008169957833776543 -0.016473103683545192 0.005747241713983049 -0.012352468089770023 0.03699800353012237 -19.799937878946075 -0.013758962587166683 0.004068158761617394 -0.03809647770621967 -0.0011823377144143264 0.012167317789808778 -0.0417907082401158 -0.04015147853757879 0.02540469856018039 24.080476252542798 -0.0006240572589891863 -0.0106268663016151 28.878074050454313 -0.03430472772207081 -0.012267797114109115 28.820158022288528 0.014057389455458504 -0.01139136319020875 9.64907390576095 2.336718488514119 14.883462443115718 -74.08444105388891 26.56630404395535 -12.196885724337575 -14.825652017272791 2.5276320805515726 -83.2879351401328 -23.465666572723517 -4.7704032989495655 3.14421397502187 -0.4566704423587549 0.03544295242269923 -8.152679475071235 -0.04005439335302647 -0.04110048872471316 44.55905199890853 0.007004762779995193 0.023917566288008556 44.517644010735594 12.48599678204161 -0.03870139320167615 0.006784535366605725 0.02100003336264478 -0.0004179829967496024 0.044474296739131954 0.0452284866567891 0.010302836937261918 -0.017661811927730312 11.11022042993016 -0.010164922338815363 0.047292895605276115 -0.02991437450960101 0.0401802418910884 0.026759184814348407 0.012831795448623153 0.015345417625373812 -0.006934363032789322 4.782245702694903 0.006726398393671991 0.03976417995708946 0.029887620249127656 -0.004408091583536181 0.04893452684200863 -0.02738378951270583 -0.044931346130179316 0.0454902982054175 -5.6265637162463875 0.03483172797144958 -0.024230833633212736 -6.703959862400069 0.0024677379607735655 0.04049529682466066 -6.699516064944159 -0.012274497968848884 0.02833572602514124 -0.007600603475421856 -0.04202919829383042 0.023910227458881602 8.040392499653393 3.53259752600554 -19.190097815974585 0.047941321725121014 10.400379461602009 0.030062991346616483 -5.665812180390399 -15.640367066771526 3.15836784281354 -0.030262536535045268 -0.02910740937946314 0.03801745142459667 -0.0173200281213829 4.699617699713188 -0.02044679340733942 12.436743250563836 -8.256801008012106 6.920839213579729 -0.002744900939017058 46.39639099041578 -0.03772299487947082 -4.295970381296801 -14.74738648870213 -3.841887944791235 -0.0195224187690878 0.0013375527261632494 -0.0023921447572201092 0.039061653229638095 -10.7261816576966 -0.03395755532317832 
-0.000981371051838116 0.0011134683952878698 -0.0398918320026875 -0.01950782245102631 0.0243083140935837 0.03705880450311873 4.245100599133426 2.336750150139183 -1.9898465604963629 -0.6495427942051031 3.6988215672034435 0.38092216469819784 -0.5767267065043258 -1.541546817267214 0.9189545877668375 -0.5229067776818842 -0.23632053493831903 -0.2966370909483926 -0.025742534453082343 14.135030952805424 -1.1609209154134874 0.36764939325071005 0.518779728099046 -2.6790089644647597 0.72662068374941 -15.297810033527306 -0.2380764171176344 -8.995845467302455 3.1066919138676314 -17.172416057436465 77.87924266382494 20.183636294742875 8.565665795404016 -3.2680623880877158 0.1579728642974077 86.31953208163024 21.143201180835366 -0.5247768821150842 -5.196510479053685 4.557311752015578 -0.14303909599053974 -1.5875939807440593 0.005950584017105903 0.03695623231273867 -56.2742347231683 -0.03279515678932878 0.014470943676277541 -56.20937842482539 -38.75054678348655 -0.027041129046951523 -0.024011488673719623 -0.04425333501823855 -0.027205204911314913 -0.0014670624359357832 -0.023561763366115762 -0.004327554052677151 -0.0011283562912244188 -36.64859336718624 0.005111482703407154 0.028487413095740672 -0.0217998516900831 -0.04462305681378117 0.002083101296062561 0.019698095038752812 -0.040688623287954626 0.04492183488371722 -19.75544195548472 -0.019321333094631542 -0.045348046613239094 -0.016366441078090925 -0.02807744955148355 -0.02917124377401351 0.04770991578006644 -0.011093143118137921 0.03471583160047563 24.016953378027758 0.026136769671878873 -0.03511508033162105 28.89025776782628 0.04998872843698413 0.013366155214715101 28.821265143135488 -0.007500850914417095 0.005816813622523177 10.089347368809333 2.3905327934035863 15.06845857966178 -73.87618326213597 26.892558620608618 -12.87430884296644 -14.976618752193628 2.798286284158569 -83.94789368412486 -23.594538273478484 -5.764709675808031 3.883159608728312 -0.5044345022352495 0.07623065807840389 -8.139405917085131 0.022458231765249907 -0.03160956975395729 44.614979156829605 0.035618844186629875 0.006706213367520521 44.53672816689874 12.472599811464274 -0.036089365777383475 0.024855937217569922 0.04772461433892129 -0.042687414152676004 0.03804130547816776 -0.015492625123258604 0.029184284919242135 -0.004933319730456287 11.15495923744248 0.00511271770321367 0.010852002421355134 0.04049535710231765 -0.015131194307555159 -0.011623535412421533 -0.022785336550303893 -0.022380219746575947 -0.027312631571285575 4.769627456691383 0.017043578465713128 -0.012020760465283668 -0.014689840813343971 0.018017142092495622 0.01720882147312523 -0.004141904039972218 -0.009097550057792794 0.025942313734219506 -5.649353319547866 -0.02762696765204932 -0.023184175520623105 -6.727644689309651 -0.0029353469119998577 0.03526837307782177 -6.688728983643323 0.0035119770662028035 -0.04548200211690689 0.03930995985719388 0.01179438083955499 0.04210042716499415 7.9976899177072465 3.5308750096065076 -19.204273108758592 -0.04359191520869652 10.414714621808022 -0.023991357672199082 -5.648546727015879 -15.637578225769026 3.2255457305085136 0.00037503154232506686 0.04184852358120985 -0.023632779278671405 -0.03964437659588012 4.736967229202765 0.02943087360238154 12.421655125658583 -8.211682471098236 6.920242808379374 -0.03916642059595232 46.381012948559956 -0.025993483195852735 -4.326552675001559 -14.755459788550475 -3.7910904886581234 -0.010555887299389437 0.02970344333227818 0.00023381972572665742 -0.022306094535745315 -10.78643114728288 -0.023270230220595153 
